1.9Hzhigh3min_grf.mot
version=1
nRows=27
nColumns 19
inDegrees=yes
endheader
time	1_ground_force_vx	1_ground_force_vy	1_ground_force_vz	1_ground_force_px	1_ground_force_py	1_ground_force_pz	1_ground_torque_x	1_ground_torque_y	1_ground_torque_z	2_ground_force_vx	2_ground_force_vy	2_ground_force_vz	2_ground_force_px	2_ground_force_py	2_ground_force_pz	2_ground_torque_x	2_ground_torque_y	2_ground_torque_z
            1.253500	          -26.443270	         1341.144179	         -113.916986	           -0.193992	            0.006486	           -0.465103	           -0.142220	            7.213088	           -0.612681	          -44.694250	         1338.177601	          127.229225	           -0.155364	            0.006008	           -0.721477	            0.099125	           -2.967876	           -0.282175
            1.254000	          -25.890328	         1335.012242	         -113.256790	           -0.193908	            0.006487	           -0.465166	           -0.131310	            6.770888	           -0.574413	          -44.253592	         1332.841037	          126.599918	           -0.155300	            0.006008	           -0.721565	            0.096819	           -2.916015	           -0.276978
            1.254500	          -25.337307	         1330.321841	         -112.452853	           -0.193899	            0.006485	           -0.464826	           -0.119069	            6.251658	           -0.528456	          -43.808207	         1326.214512	          126.153738	           -0.155166	            0.006008	           -0.721414	            0.098539	           -2.983092	           -0.283761
            1.255000	          -24.966290	         1324.367731	         -111.195305	           -0.193968	            0.006485	           -0.464773	           -0.113642	            6.028259	           -0.506139	          -43.271852	         1320.325802	          125.522420	           -0.155179	            0.006008	           -0.721440	            0.097880	           -2.986544	           -0.283929
            1.255500	          -24.550842	         1318.055594	         -110.535540	           -0.193739	            0.006485	           -0.464787	           -0.115625	            6.207546	           -0.520581	          -43.019082	         1315.171378	          125.316211	           -0.155121	            0.006009	           -0.721543	            0.097376	           -2.976960	           -0.283660
            1.256000	          -23.904602	         1311.200178	         -109.282540	           -0.193598	            0.006486	           -0.464860	           -0.124996	            6.856221	           -0.571435	          -42.528249	         1308.914096	          124.683614	           -0.155083	            0.006009	           -0.721710	            0.096947	           -2.983783	           -0.284227
            1.256500	          -23.626894	         1304.167419	         -108.763098	           -0.193516	            0.006486	           -0.464982	           -0.128615	            7.099351	           -0.592062	          -42.129270	         1302.105407	          123.720582	           -0.154964	            0.006009	           -0.721484	            0.098593	           -3.047258	           -0.289538
            1.257000	          -23.119263	         1299.476223	         -107.775609	           -0.193519	            0.006485	           -0.464736	           -0.125560	            7.057390	           -0.585324	          -41.732038	         1295.846950	          123.322657	           -0.154882	            0.006009	           -0.721508	            0.097704	           -3.033881	           -0.288727
            1.257500	          -23.070149	         1291.541518	         -107.076038	           -0.193469	            0.006486	           -0.464931	           -0.116175	            6.503834	           -0.539204	          -41.662897	         1289.588480	          122.596368	           -0.154844	            0.006010	           -0.721662	            0.097542	           -3.019210	           -0.287025
            1.258000	          -22.516850	         1285.949562	         -106.230114	           -0.193423	            0.006485	           -0.464712	           -0.106633	            6.089843	           -0.503072	          -41.404536	         1282.779786	          121.492619	           -0.154655	            0.006010	           -0.721521	            0.097065	           -3.007221	           -0.284815
            1.258500	          -22.008614	         1279.815650	         -105.111238	           -0.193426	            0.006484	           -0.464574	           -0.103575	            6.022982	           -0.494667	          -40.821501	         1276.892584	          120.485856	           -0.154703	            0.006010	           -0.721561	            0.099915	           -3.125316	           -0.294901
            1.259000	          -22.004563	         1271.338991	         -104.138744	           -0.193245	            0.006486	           -0.464922	           -0.109114	            6.304197	           -0.516393	          -40.657931	         1270.449871	          119.899662	           -0.154622	            0.006010	           -0.721539	            0.099481	           -3.108506	           -0.293368
            1.259500	          -21.817600	         1265.385781	         -103.155870	           -0.193166	            0.006485	           -0.464679	           -0.117019	            6.786930	           -0.553279	          -40.493806	         1263.823914	          119.078178	           -0.154574	            0.006011	           -0.721531	            0.099177	           -3.095345	           -0.291645
            1.260000	          -21.448060	         1258.172669	         -102.591575	           -0.193058	            0.006485	           -0.464772	           -0.119077	            6.985209	           -0.569575	          -40.422110	         1256.829718	          118.114627	           -0.154397	            0.006011	           -0.721564	            0.099633	           -3.097857	           -0.291131
            1.260500	          -21.214648	         1250.776997	         -101.477441	           -0.192994	            0.006485	           -0.464768	           -0.114633	            6.758568	           -0.548333	          -39.747312	         1251.494836	          117.250588	           -0.154465	            0.006011	           -0.721654	            0.101654	           -3.200707	           -0.299869
            1.261000	          -21.073626	         1244.103231	         -100.589264	           -0.193004	            0.006485	           -0.464767	           -0.106064	            6.261617	           -0.506269	          -39.860068	         1243.761057	          116.941482	           -0.154302	            0.006012	           -0.721623	            0.100940	           -3.149655	           -0.296138
            1.261500	          -20.520274	         1236.348798	          -99.890172	           -0.192844	            0.006485	           -0.464805	           -0.098524	            5.936111	           -0.479605	          -39.409086	         1235.480752	          115.597749	           -0.154085	            0.006012	           -0.721449	            0.100959	           -3.165095	           -0.296142
            1.262000	          -20.653216	         1229.312617	          -98.590159	           -0.192808	            0.006485	           -0.464752	           -0.098401	            5.857015	           -0.469729	          -39.385592	         1228.854957	          114.588597	           -0.154134	            0.006012	           -0.721529	            0.103572	           -3.231499	           -0.301332
            1.262500	          -20.374762	         1223.179888	          -97.700003	           -0.192701	            0.006484	           -0.464548	           -0.105345	            6.324315	           -0.505147	          -39.034732	         1222.413757	          113.767690	           -0.154122	            0.006012	           -0.721568	            0.103940	           -3.254978	           -0.302935
            1.263000	          -20.187504	         1215.604379	          -96.724085	           -0.192631	            0.006484	           -0.464510	           -0.111466	            6.712007	           -0.534066	          -38.631080	         1214.315612	          112.846978	           -0.153925	            0.006012	           -0.721361	            0.104394	           -3.281490	           -0.304951
            1.263500	          -19.862979	         1208.209708	          -95.839455	           -0.192454	            0.006485	           -0.464579	           -0.112815	            6.862215	           -0.544335	          -38.413580	         1205.849300	          111.737335	           -0.153751	            0.006013	           -0.721366	            0.104598	           -3.283456	           -0.304254
            1.264000	          -19.951605	         1199.554382	          -95.280206	           -0.192425	            0.006485	           -0.464686	           -0.107219	            6.446326	           -0.512030	          -38.153821	         1198.671945	          110.773049	           -0.153723	            0.006013	           -0.721383	            0.103710	           -3.258241	           -0.301104
            1.264500	          -19.581544	         1191.979891	          -94.534034	           -0.192406	            0.006485	           -0.464722	           -0.097925	            5.960922	           -0.472751	          -38.172587	         1190.757193	          109.618540	           -0.153580	            0.006013	           -0.721314	            0.105045	           -3.276770	           -0.301652
            1.265000	          -19.119065	         1184.764634	          -93.465549	           -0.192250	            0.006484	           -0.464560	           -0.092758	            5.747976	           -0.453455	          -37.820440	         1183.948169	          108.702448	           -0.153568	            0.006013	           -0.721316	            0.107447	           -3.363576	           -0.308822
            1.265500	          -19.068878	         1177.188312	          -92.305866	           -0.192208	            0.006484	           -0.464413	           -0.093292	            5.759229	           -0.451594	          -37.420878	         1176.955826	          107.551046	           -0.153533	            0.006014	           -0.721382	            0.107150	           -3.370064	           -0.307959
            1.266000	          -18.882320	         1170.334971	          -91.556147	           -0.192105	            0.006483	           -0.464316	           -0.100194	            6.210056	           -0.485817	          -36.824551	         1167.385811	          106.531157	           -0.153221	            0.006014	           -0.721232	            0.108689	           -3.445594	           -0.314432
            1.266500	          -18.602639	         1160.595823	          -90.452175	           -0.191870	            0.006485	           -0.464642	           -0.105066	            6.554943	           -0.510866	          -36.846559	         1160.391276	          105.567647	           -0.153134	            0.006015	           -0.721314	            0.109902	           -3.461077	           -0.314875
